<?xml version="1.0" encoding="utf-8"?>
<!-- Generator: Adobe Illustrator 26.0.3, SVG Export Plug-In . SVG Version: 6.00 Build 0)  -->
<svg version="1.1" id="Layer_1" xmlns="http://www.w3.org/2000/svg" xmlns:xlink="http://www.w3.org/1999/xlink" x="0px" y="0px"
	 viewBox="0 0 164 50" style="enable-background:new 0 0 164 50;" xml:space="preserve">
<style type="text/css">
	.st0{fill:#6699CC;}
	.st1{fill:#FFFFFF;}
</style>
<path class="st0" d="M10,0h30c5.5,0,10,4.5,10,10v30c0,5.5-4.5,10-10,10H10C4.5,50,0,45.5,0,40V10C0,4.5,4.5,0,10,0z"/>
<circle class="st1" cx="24.9" cy="15.5" r="5.7"/>
<rect x="22.2" y="23.1" class="st1" width="5.4" height="16"/>
<g>
	<path class="st0" d="M55.9,20c0-0.5,0.2-0.9,0.5-1.2s0.7-0.5,1.2-0.5c0.5,0,0.9,0.2,1.2,0.5s0.5,0.7,0.5,1.2s-0.2,0.9-0.5,1.2
		s-0.7,0.5-1.2,0.5c-0.5,0-0.9-0.1-1.2-0.5S55.9,20.5,55.9,20z M56.2,22.9h2.6v8.9h-2.6V22.9z"/>
	<path class="st0" d="M61.4,22.9h1.9l0.3,1c0.4-0.4,0.8-0.7,1.3-0.9c0.5-0.2,1.1-0.3,1.7-0.3c0.6,0,1.1,0.1,1.6,0.3s0.9,0.5,1.2,0.8
		c0.3,0.4,0.6,0.8,0.7,1.3c0.2,0.5,0.3,1.1,0.3,1.7v5.1h-2.6v-4.9c0-0.7-0.2-1.2-0.5-1.5c-0.3-0.4-0.7-0.6-1.3-0.6
		c-0.6,0-1.1,0.2-1.4,0.6c-0.4,0.4-0.5,1-0.5,1.7v4.7h-2.6V22.9z"/>
	<path class="st0" d="M77,32c-0.7,0-1.4-0.1-2-0.3c-0.6-0.2-1.1-0.6-1.5-1c-0.4-0.4-0.8-0.9-1-1.5s-0.4-1.2-0.4-1.9
		c0-0.7,0.1-1.3,0.4-1.9s0.6-1.1,1-1.5c0.4-0.4,1-0.7,1.5-1c0.6-0.2,1.2-0.3,2-0.3c0.6,0,1.2,0.1,1.7,0.3s1,0.4,1.4,0.7
		c0.4,0.3,0.8,0.7,1,1.1c0.3,0.4,0.5,0.9,0.6,1.5h-2.5c-0.2-0.5-0.5-0.8-0.9-1.1C78,25,77.5,24.9,77,24.9c-0.7,0-1.3,0.2-1.7,0.7
		s-0.7,1.1-0.7,1.8s0.2,1.3,0.7,1.8c0.4,0.5,1,0.7,1.7,0.7c0.5,0,1-0.1,1.4-0.4c0.4-0.3,0.7-0.7,0.9-1.2h2.5
		c-0.1,0.6-0.3,1.1-0.6,1.6s-0.6,0.9-1.1,1.2c-0.4,0.3-0.9,0.6-1.4,0.8C78.2,32,77.6,32,77,32z"/>
	<path class="st0" d="M83.4,20c0-0.5,0.2-0.9,0.5-1.2s0.7-0.5,1.2-0.5s0.9,0.2,1.2,0.5s0.5,0.7,0.5,1.2s-0.2,0.9-0.5,1.2
		s-0.7,0.5-1.2,0.5s-0.9-0.1-1.2-0.5S83.4,20.5,83.4,20z M83.8,22.9h2.6v8.9h-2.6V22.9z"/>
	<path class="st0" d="M92.8,32c-0.7,0-1.3-0.1-1.8-0.3c-0.6-0.2-1-0.6-1.4-1c-0.4-0.4-0.7-0.9-0.9-1.5s-0.3-1.2-0.3-1.9
		c0-0.7,0.1-1.3,0.3-1.9s0.5-1.1,0.9-1.5c0.4-0.4,0.9-0.7,1.4-1c0.6-0.2,1.2-0.3,1.8-0.3c0.6,0,1.1,0.1,1.5,0.2
		c0.5,0.2,0.9,0.4,1.3,0.7v-4.4h2.6v12.6h-1.9l-0.3-1c-0.4,0.4-0.9,0.7-1.4,0.9C94.1,31.9,93.5,32,92.8,32z M90.9,27.3
		c0,0.7,0.2,1.3,0.7,1.8c0.5,0.5,1,0.7,1.8,0.7c0.4,0,0.7-0.1,1-0.2c0.3-0.1,0.6-0.3,0.8-0.5c0.2-0.2,0.4-0.5,0.5-0.8s0.2-0.6,0.2-1
		s-0.1-0.7-0.2-1c-0.1-0.3-0.3-0.6-0.5-0.8c-0.2-0.2-0.5-0.4-0.8-0.5c-0.3-0.1-0.6-0.2-1-0.2c-0.4,0-0.7,0.1-1,0.2
		c-0.3,0.1-0.6,0.3-0.8,0.5c-0.2,0.2-0.4,0.5-0.5,0.8C90.9,26.6,90.9,27,90.9,27.3z"/>
	<path class="st0" d="M105.1,32c-0.7,0-1.4-0.1-2-0.3c-0.6-0.2-1.1-0.5-1.5-1c-0.4-0.4-0.8-0.9-1-1.5c-0.2-0.6-0.4-1.2-0.4-1.9
		s0.1-1.3,0.4-1.9c0.2-0.6,0.6-1.1,1-1.5c0.4-0.4,0.9-0.7,1.5-1c0.6-0.2,1.3-0.3,2-0.3c0.8,0,1.5,0.1,2.1,0.4
		c0.6,0.3,1.1,0.6,1.6,1.1c0.4,0.5,0.7,1,1,1.7c0.2,0.7,0.3,1.4,0.3,2.2h-7.2c0.1,0.6,0.4,1.1,0.8,1.4s0.9,0.5,1.5,0.5
		c0.4,0,0.8-0.1,1.2-0.2c0.4-0.2,0.6-0.4,0.9-0.7h2.6c-0.4,1-1,1.7-1.8,2.2C107.1,31.8,106.2,32,105.1,32z M107.5,26.5
		c-0.1-0.5-0.4-1-0.8-1.3c-0.4-0.3-0.9-0.5-1.5-0.5c-0.6,0-1.1,0.2-1.5,0.5c-0.4,0.3-0.7,0.7-0.8,1.3H107.5z"/>
	<path class="st0" d="M111.9,22.9h1.9l0.3,1c0.4-0.4,0.8-0.7,1.3-0.9s1.1-0.3,1.7-0.3c0.6,0,1.1,0.1,1.6,0.3
		c0.5,0.2,0.9,0.5,1.2,0.8c0.3,0.4,0.6,0.8,0.7,1.3s0.3,1.1,0.3,1.7v5.1h-2.6v-4.9c0-0.7-0.2-1.2-0.5-1.5s-0.7-0.6-1.3-0.6
		c-0.6,0-1.1,0.2-1.4,0.6c-0.4,0.4-0.5,1-0.5,1.7v4.7h-2.6V22.9z"/>
	<path class="st0" d="M127.3,31.8c-1.1,0-2-0.3-2.6-0.9c-0.6-0.6-0.9-1.4-0.9-2.5V25H122v-2.1h0.8c0.2,0,0.4,0,0.6-0.1
		c0.2,0,0.3-0.1,0.4-0.2s0.2-0.2,0.2-0.4c0.1-0.2,0.1-0.3,0.1-0.6l0.2-1.2h2v2.3h2.4V25h-2.4v3c0,1,0.5,1.5,1.5,1.5h1.1v2.2H127.3z"
		/>
	<path class="st0" d="M133.6,32c-1.1,0-1.9-0.2-2.5-0.7c-0.6-0.5-0.9-1.2-0.9-2c0-0.8,0.3-1.5,0.8-2c0.5-0.5,1.3-0.7,2.2-0.7h3.2
		v-0.4c0-0.4-0.2-0.8-0.5-1.1c-0.3-0.3-0.7-0.4-1.2-0.4c-0.4,0-0.8,0.1-1.1,0.3s-0.5,0.4-0.6,0.8h-2.5c0.2-1,0.6-1.7,1.3-2.2
		c0.7-0.5,1.6-0.8,2.8-0.8c1.3,0,2.4,0.3,3.1,1c0.8,0.7,1.1,1.6,1.1,2.8v5.4h-1.9l-0.3-1C136,31.6,134.9,32,133.6,32z M132.7,29.1
		c0,0.3,0.1,0.6,0.4,0.7c0.3,0.2,0.6,0.3,1.1,0.3c0.6,0,1.2-0.2,1.6-0.6s0.6-0.9,0.7-1.5H134c-0.4,0-0.7,0.1-0.9,0.3
		S132.7,28.8,132.7,29.1z"/>
	<path class="st0" d="M141.4,19.2h2.6v12.6h-2.6V19.2z"/>
	<path class="st0" d="M146.6,19.2h2.6v12.6h-2.6V19.2z"/>
	<path class="st0" d="M151.8,33h1c0.3,0,0.5,0,0.7-0.1c0.2,0,0.3-0.1,0.5-0.2c0.1-0.1,0.2-0.2,0.3-0.3s0.2-0.3,0.3-0.6l0.1-0.3
		l-4-8.6h2.9l2.4,5.5l2-5.5h2.8l-4,10c-0.2,0.5-0.4,0.8-0.6,1.1c-0.2,0.3-0.5,0.5-0.7,0.7s-0.6,0.3-1,0.4c-0.4,0.1-0.8,0.1-1.4,0.1
		h-1.2V33z"/>
</g>
</svg>
